# This file uses centimeters as units for non-parametric coordinates.

mtllib apple_mod.mtl
g default
v 0.241810 1.439598 -0.139229
v 0.317571 1.403353 0.072496
v 0.520833 1.566919 0.028016
v 0.445207 1.606646 -0.178256
v 0.448511 1.283958 0.208304
v 0.647395 1.449034 0.158559
v 0.593157 1.125167 0.253585
v 0.788560 1.297055 0.200518
v 0.718821 0.961663 0.182708
v 0.909370 1.138431 0.132416
v 0.797233 0.831394 0.024374
v 0.987974 1.009753 -0.017762
v 0.816916 0.754211 -0.189523
v 1.008455 0.937933 -0.226929
v 0.751462 0.776419 -0.417945
v 0.940700 0.962084 -0.446435
v 0.615311 0.895501 -0.580558
v 0.813721 1.072069 -0.614782
v 0.456866 1.073228 -0.613200
v 0.654838 1.246934 -0.654732
v 0.327322 1.245905 -0.527704
v 0.524475 1.419427 -0.566966
v 0.252880 1.374690 -0.356836
v 0.452088 1.544735 -0.393854
v 0.145717 1.258953 -0.086010
v 0.214425 1.225692 0.083168
v 0.323839 1.129698 0.186167
v 0.439182 1.004725 0.224197
v 0.543787 0.872148 0.175355
v 0.612167 0.758468 0.050841
v 0.626931 0.696538 -0.130094
v 0.576988 0.695383 -0.330307
v 0.453659 0.798115 -0.476867
v 0.317710 0.961351 -0.501078
v 0.211650 1.107337 -0.420618
v 0.153856 1.206580 -0.269681
v 0.727014 1.600703 -0.066224
v 0.671768 1.633717 -0.205022
v 0.815284 1.519062 0.018431
v 0.906150 1.414638 0.035511
v 0.986234 1.311365 -0.005834
v 1.047690 1.222500 -0.099233
v 1.067908 1.167699 -0.242592
v 1.030921 1.174245 -0.405480
v 0.938988 1.252932 -0.532646
v 0.819778 1.381106 -0.559569
v 0.723499 1.504934 -0.487544
v 0.672191 1.593722 -0.358234
v 0.871687 1.399917 -0.392415
v 0.931734 1.352372 -0.386928
v 0.965819 1.320181 -0.332097
v 0.894978 1.344245 -0.312331
v 0.856141 1.361348 -0.311565
v 0.967987 1.312056 -0.258255
v 0.878362 1.319429 -0.264397
v 0.902667 1.351639 -0.156122
v 0.871286 1.401163 -0.138694
v 0.823093 1.298663 -0.227150
v 0.806052 1.357976 -0.189881
v 0.945993 1.326635 -0.197964
v 0.816381 1.448190 -0.354682
v 0.800280 1.390884 -0.286484
v 0.796835 1.491015 -0.293856
v 0.817229 1.521895 -0.163511
v 0.797750 1.511823 -0.226734
v 0.798580 1.416375 -0.219451
v 0.848396 1.463848 -0.147119
v 0.144011 1.083390 -0.015614
v 0.208969 1.046811 0.073303
v 0.271545 0.986337 0.124640
v 0.329919 0.917653 0.152303
v 0.393361 0.837698 0.139785
v 0.443940 0.767849 0.066325
v 0.468034 0.716306 -0.049412
v 0.442701 0.702575 -0.197890
v 0.343838 0.785376 -0.316347
v 0.256736 0.933172 -0.342819
v 0.186881 1.027894 -0.273369
v 0.132748 1.059104 -0.151368
v 0.282525 0.889172 0.010947
v 0.297882 0.856760 0.048494
v 0.230495 0.974881 -0.061076
v 0.269035 0.934849 -0.020562
v 0.306425 0.950516 -0.255191
v 0.248901 0.985461 -0.198241
v 0.365591 0.856712 -0.229032
v 0.353649 0.922843 -0.185099
v 0.305807 0.955113 -0.165821
v 0.398673 0.880623 -0.163644
v 0.389657 0.779125 -0.155496
v 0.389248 0.772264 -0.086620
v 0.385882 0.822556 -0.128229
v 0.369790 0.796721 -0.035948
v 0.379611 0.845090 -0.085723
v 0.329737 0.822037 0.008533
v 0.339495 0.896501 -0.077925
v 0.296286 0.962415 -0.111109
v 0.214080 0.975212 -0.120365
vt 0.204810 0.750850
vt 0.252520 0.683050
vt 0.386530 0.741620
vt 0.352500 0.814440
vt 0.294330 0.619810
vt 0.422090 0.673990
vt 0.331880 0.558770
vt 0.454770 0.610100
vt 0.362850 0.495610
vt 0.483790 0.545440
vt 0.387820 0.429340
vt 0.507500 0.477830
vt 0.407920 0.356410
vt 0.528200 0.404130
vt 0.421830 0.276650
vt 0.550510 0.326030
vt 0.430700 0.191580
vt 0.575440 0.243100
vt 0.434580 0.102150
vt 0.611940 0.158860
vt 0.434170 0.000970
vt 0.666210 0.068950
vt 0.095820 0.917170
vt 0.152150 0.823630
vt 0.325490 0.895110
vt 0.304030 0.999020
vt 0.131180 0.672790
vt 0.179260 0.619960
vt 0.219490 0.569210
vt 0.256350 0.520260
vt 0.286200 0.466970
vt 0.310480 0.409060
vt 0.325720 0.344320
vt 0.335390 0.271510
vt 0.331210 0.194120
vt 0.309170 0.119380
vt 0.264160 0.048360
vt 0.000970 0.789650
vt 0.068100 0.719320
vt 0.498120 0.746860
vt 0.478230 0.810630
vt 0.528130 0.691420
vt 0.557600 0.639870
vt 0.580440 0.586840
vt 0.597600 0.528390
vt 0.615610 0.464400
vt 0.636600 0.394650
vt 0.665930 0.323990
vt 0.713510 0.264630
vt 0.787770 0.222280
vt 0.474970 0.879170
vt 0.480480 0.956990
vt 0.750350 0.415100
vt 0.722820 0.430230
vt 0.704620 0.466530
vt 0.727380 0.494590
vt 0.749220 0.479920
vt 0.689110 0.512480
vt 0.717590 0.537910
vt 0.665730 0.607540
vt 0.651330 0.656550
vt 0.716160 0.581900
vt 0.715560 0.626590
vt 0.676190 0.556750
vt 0.785300 0.421500
vt 0.775850 0.507090
vt 0.605870 0.800580
vt 0.620380 0.844100
vt 0.654950 0.796790
vt 0.613460 0.738270
vt 0.602190 0.767830
vt 0.772200 0.567470
vt 0.626820 0.703430
vt 0.664860 0.733050
vt 0.119990 0.565950
vt 0.152040 0.530750
vt 0.175180 0.507640
vt 0.195350 0.486730
vt 0.215700 0.459370
vt 0.228750 0.423850
vt 0.239070 0.379540
vt 0.249370 0.318230
vt 0.223910 0.246050
vt 0.192720 0.168360
vt 0.124350 0.140980
vt 0.004170 0.611270
vt 0.059830 0.563940
vt 0.144530 0.417810
vt 0.158380 0.410830
vt 0.087180 0.456910
vt 0.118450 0.432990
vt 0.135570 0.240360
vt 0.094880 0.237670
vt 0.168350 0.286220
vt 0.122510 0.310850
vt 0.087860 0.337560
vt 0.151520 0.312180
vt 0.196050 0.333290
vt 0.188920 0.353300
vt 0.169130 0.340140
vt 0.180970 0.373340
vt 0.151930 0.363150
vt 0.167130 0.397160
vt 0.125160 0.386130
vt 0.096060 0.377910
vt 0.030510 0.472930
vt 0.066710 0.476990
vn -0.757382 0.649933 0.062928
vn -0.558903 0.580802 0.591858
vn -0.217891 0.824845 0.521684
vn -0.406977 0.913286 0.016696
vn -0.558903 0.580802 0.591858
vn -0.264304 0.323851 0.908440
vn 0.067686 0.577463 0.813606
vn -0.217891 0.824845 0.521684
vn -0.264304 0.323851 0.908440
vn 0.061837 -0.030555 0.997618
vn 0.386508 0.253444 0.886779
vn 0.067686 0.577463 0.813606
vn 0.061837 -0.030555 0.997618
vn 0.357042 -0.406836 0.840836
vn 0.656872 -0.102769 0.746965
vn 0.386508 0.253444 0.886779
vn 0.357042 -0.406836 0.840836
vn 0.519013 -0.682437 0.514689
vn 0.814020 -0.379473 0.439740
vn 0.656872 -0.102769 0.746965
vn 0.519013 -0.682437 0.514689
vn 0.523150 -0.851318 0.039659
vn 0.849396 -0.527223 -0.023711
vn 0.814020 -0.379473 0.439740
vn 0.523150 -0.851318 0.039659
vn 0.382095 -0.795056 -0.471051
vn 0.708249 -0.482583 -0.515264
vn 0.849396 -0.527223 -0.023711
vn 0.382095 -0.795056 -0.471051
vn 0.042349 -0.522976 -0.851295
vn 0.403135 -0.229056 -0.886011
vn 0.708249 -0.482583 -0.515264
vn 0.042349 -0.522976 -0.851295
vn -0.333554 -0.128549 -0.933926
vn 0.023024 0.168337 -0.985461
vn 0.403135 -0.229056 -0.886011
vn -0.333554 -0.128549 -0.933926
vn -0.607308 0.237328 -0.758190
vn -0.255649 0.535345 -0.805015
vn 0.023024 0.168337 -0.985461
vn -0.607308 0.237328 -0.758190
vn -0.757073 0.503050 -0.416870
vn -0.403966 0.787357 -0.465705
vn -0.255649 0.535345 -0.805015
vn -0.406977 0.913286 0.016696
vn -0.403966 0.787357 -0.465705
vn -0.757073 0.503050 -0.416870
vn -0.757382 0.649933 0.062928
vn -0.935844 0.320271 0.147043
vn -0.742579 0.250528 0.621138
vn -0.558903 0.580802 0.591858
vn -0.757382 0.649933 0.062928
vn -0.742579 0.250528 0.621138
vn -0.493402 0.047592 0.868499
vn -0.264304 0.323851 0.908440
vn -0.558903 0.580802 0.591858
vn -0.493402 0.047592 0.868499
vn -0.209100 -0.215489 0.953856
vn 0.061837 -0.030555 0.997618
vn -0.264304 0.323851 0.908440
vn -0.209100 -0.215489 0.953856
vn 0.078236 -0.532821 0.842604
vn 0.357042 -0.406836 0.840836
vn 0.061837 -0.030555 0.997618
vn 0.078236 -0.532821 0.842604
vn 0.196013 -0.822974 0.533191
vn 0.519013 -0.682437 0.514689
vn 0.357042 -0.406836 0.840836
vn 0.196013 -0.822974 0.533191
vn 0.163797 -0.976479 0.140212
vn 0.523150 -0.851318 0.039659
vn 0.519013 -0.682437 0.514689
vn 0.163797 -0.976479 0.140212
vn 0.026266 -0.958009 -0.285532
vn 0.382095 -0.795056 -0.471051
vn 0.523150 -0.851318 0.039659
vn 0.026266 -0.958009 -0.285532
vn -0.309514 -0.712873 -0.629296
vn 0.042349 -0.522976 -0.851295
vn 0.382095 -0.795056 -0.471051
vn -0.309514 -0.712873 -0.629296
vn -0.642372 -0.363952 -0.674461
vn -0.333554 -0.128549 -0.933926
vn 0.042349 -0.522976 -0.851295
vn -0.642372 -0.363952 -0.674461
vn -0.850629 -0.077590 -0.520009
vn -0.607308 0.237328 -0.758190
vn -0.333554 -0.128549 -0.933926
vn -0.850629 -0.077590 -0.520009
vn -0.947991 0.160562 -0.274831
vn -0.757073 0.503050 -0.416870
vn -0.607308 0.237328 -0.758190
vn -0.757382 0.649933 0.062928
vn -0.757073 0.503050 -0.416870
vn -0.947991 0.160562 -0.274831
vn -0.935844 0.320271 0.147043
vn -0.217891 0.824845 0.521684
vn 0.338687 0.904311 0.259834
vn 0.238520 0.968341 -0.073653
vn -0.406977 0.913286 0.016696
vn -0.217891 0.824845 0.521684
vn 0.067686 0.577463 0.813606
vn 0.548930 0.726182 0.413927
vn 0.338687 0.904311 0.259834
vn 0.067686 0.577463 0.813606
vn 0.386508 0.253444 0.886779
vn 0.740417 0.560253 0.371347
vn 0.548930 0.726182 0.413927
vn 0.386508 0.253444 0.886779
vn 0.656872 -0.102769 0.746965
vn 0.857045 0.434031 0.277652
vn 0.740417 0.560253 0.371347
vn 0.656872 -0.102769 0.746965
vn 0.814020 -0.379473 0.439740
vn 0.944441 0.277976 0.175386
vn 0.857045 0.434031 0.277652
vn 0.814020 -0.379473 0.439740
vn 0.849396 -0.527223 -0.023711
vn 0.989474 0.132947 -0.057153
vn 0.944441 0.277976 0.175386
vn 0.849396 -0.527223 -0.023711
vn 0.708249 -0.482583 -0.515264
vn 0.921297 0.088894 -0.378563
vn 0.989474 0.132947 -0.057153
vn 0.708249 -0.482583 -0.515264
vn 0.403135 -0.229056 -0.886011
vn 0.715721 0.238460 -0.656415
vn 0.921297 0.088894 -0.378563
vn 0.403135 -0.229056 -0.886011
vn 0.023024 0.168337 -0.985461
vn 0.460456 0.534790 -0.708506
vn 0.715721 0.238460 -0.656415
vn 0.023024 0.168337 -0.985461
vn -0.255649 0.535345 -0.805015
vn 0.323496 0.766551 -0.554752
vn 0.460456 0.534790 -0.708506
vn -0.255649 0.535345 -0.805015
vn -0.403966 0.787357 -0.465705
vn 0.258513 0.893971 -0.366041
vn 0.323496 0.766551 -0.554752
vn -0.406977 0.913286 0.016696
vn 0.238520 0.968341 -0.073653
vn 0.258513 0.893971 -0.366041
vn -0.403966 0.787357 -0.465705
vn 0.460456 0.534790 -0.708506
vn 0.661920 0.746349 0.069461
vn 0.695993 0.716288 -0.050263
vn 0.715721 0.238460 -0.656415
vn 0.715721 0.238460 -0.656415
vn 0.695993 0.716288 -0.050263
vn 0.724963 0.688787 0.000734
vn 0.921297 0.088894 -0.378563
vn 0.724963 0.688787 0.000734
vn 0.695993 0.716288 -0.050263
vn 0.316117 0.879703 0.355236
vn 0.471579 0.725740 0.500914
vn 0.316117 0.879703 0.355236
vn 0.695993 0.716288 -0.050263
vn 0.661920 0.746349 0.069461
vn 0.921297 0.088894 -0.378563
vn 0.724963 0.688787 0.000734
vn 0.610028 0.790936 0.047816
vn 0.989474 0.132947 -0.057153
vn 0.027105 0.960483 0.277017
vn 0.316117 0.879703 0.355236
vn 0.471579 0.725740 0.500914
vn 0.857045 0.434031 0.277652
vn 0.513277 0.772482 -0.373922
vn 0.725476 0.421556 -0.544036
vn 0.740417 0.560253 0.371347
vn 0.725476 0.421556 -0.544036
vn 0.513277 0.772482 -0.373922
vn 0.418061 0.905903 -0.067566
vn 0.780374 0.322226 -0.535898
vn 0.944441 0.277976 0.175386
vn 0.508947 0.858438 -0.063695
vn 0.513277 0.772482 -0.373922
vn 0.857045 0.434031 0.277652
vn 0.989474 0.132947 -0.057153
vn 0.610028 0.790936 0.047816
vn 0.508947 0.858438 -0.063695
vn 0.944441 0.277976 0.175386
vn 0.513277 0.772482 -0.373922
vn 0.508947 0.858438 -0.063695
vn 0.027105 0.960483 0.277017
vn 0.418061 0.905903 -0.067566
vn 0.508947 0.858438 -0.063695
vn 0.610028 0.790936 0.047816
vn 0.027105 0.960483 0.277017
vn 0.316117 0.879703 0.355236
vn 0.027105 0.960483 0.277017
vn 0.610028 0.790936 0.047816
vn 0.724963 0.688787 0.000734
vn 0.323496 0.766551 -0.554752
vn 0.810631 0.575799 0.106458
vn 0.661920 0.746349 0.069461
vn 0.460456 0.534790 -0.708506
vn 0.471579 0.725740 0.500914
vn 0.895618 0.324720 0.304015
vn 0.418061 0.905903 -0.067566
vn 0.027105 0.960483 0.277017
vn 0.258513 0.893971 -0.366041
vn 0.896809 0.431237 -0.098832
vn 0.810631 0.575799 0.106458
vn 0.323496 0.766551 -0.554752
vn 0.895618 0.324720 0.304015
vn 0.810631 0.575799 0.106458
vn 0.896809 0.431237 -0.098832
vn 0.661920 0.746349 0.069461
vn 0.810631 0.575799 0.106458
vn 0.895618 0.324720 0.304015
vn 0.471579 0.725740 0.500914
vn 0.815373 0.533787 -0.224141
vn 0.880791 0.412016 -0.233346
vn 0.238520 0.968341 -0.073653
vn 0.338687 0.904311 0.259834
vn 0.258513 0.893971 -0.366041
vn 0.238520 0.968341 -0.073653
vn 0.880791 0.412016 -0.233346
vn 0.896809 0.431237 -0.098832
vn 0.895618 0.324720 0.304015
vn 0.973245 0.021751 -0.228737
vn 0.780374 0.322226 -0.535898
vn 0.418061 0.905903 -0.067566
vn 0.548930 0.726182 0.413927
vn 0.863335 0.320763 -0.389568
vn 0.815373 0.533787 -0.224141
vn 0.338687 0.904311 0.259834
vn 0.740417 0.560253 0.371347
vn 0.725476 0.421556 -0.544036
vn 0.863335 0.320763 -0.389568
vn 0.548930 0.726182 0.413927
vn 0.815373 0.533787 -0.224141
vn 0.863335 0.320763 -0.389568
vn 0.973245 0.021751 -0.228737
vn 0.880791 0.412016 -0.233346
vn 0.780374 0.322226 -0.535898
vn 0.973245 0.021751 -0.228737
vn 0.863335 0.320763 -0.389568
vn 0.725476 0.421556 -0.544036
vn 0.896809 0.431237 -0.098832
vn 0.880791 0.412016 -0.233346
vn 0.973245 0.021751 -0.228737
vn 0.895618 0.324720 0.304015
vn -0.918224 -0.243431 0.312419
vn -0.801599 -0.285436 0.525324
vn -0.742579 0.250528 0.621138
vn -0.935844 0.320271 0.147043
vn -0.801599 -0.285436 0.525324
vn -0.712616 -0.287167 0.640089
vn -0.493402 0.047592 0.868499
vn -0.742579 0.250528 0.621138
vn -0.712616 -0.287167 0.640089
vn -0.534357 -0.396948 0.746254
vn -0.209100 -0.215489 0.953856
vn -0.493402 0.047592 0.868499
vn -0.534357 -0.396948 0.746254
vn -0.356283 -0.625796 0.693860
vn 0.078236 -0.532821 0.842604
vn -0.209100 -0.215489 0.953856
vn -0.356283 -0.625796 0.693860
vn -0.285505 -0.841307 0.459010
vn 0.196013 -0.822974 0.533191
vn 0.078236 -0.532821 0.842604
vn -0.285505 -0.841307 0.459010
vn -0.278854 -0.926938 0.251052
vn 0.163797 -0.976479 0.140212
vn 0.196013 -0.822974 0.533191
vn -0.278854 -0.926938 0.251052
vn -0.457436 -0.889019 0.019953
vn 0.026266 -0.958009 -0.285532
vn 0.163797 -0.976479 0.140212
vn -0.457436 -0.889019 0.019953
vn -0.745135 -0.666507 -0.023296
vn -0.309514 -0.712873 -0.629296
vn 0.026266 -0.958009 -0.285532
vn -0.745135 -0.666507 -0.023296
vn -0.828653 -0.555110 -0.072026
vn -0.642372 -0.363952 -0.674461
vn -0.309514 -0.712873 -0.629296
vn -0.828653 -0.555110 -0.072026
vn -0.855129 -0.479441 -0.197208
vn -0.850629 -0.077590 -0.520009
vn -0.642372 -0.363952 -0.674461
vn -0.855129 -0.479441 -0.197208
vn -0.932022 -0.357691 -0.058243
vn -0.947991 0.160562 -0.274831
vn -0.850629 -0.077590 -0.520009
vn -0.935844 0.320271 0.147043
vn -0.947991 0.160562 -0.274831
vn -0.932022 -0.357691 -0.058243
vn -0.918224 -0.243431 0.312419
vn -0.712616 -0.287167 0.640089
vn -0.863920 -0.470590 -0.179406
vn -0.685116 -0.666278 0.294430
vn -0.534357 -0.396948 0.746254
vn -0.918224 -0.243431 0.312419
vn -0.610882 -0.791706 0.004990
vn -0.767937 -0.595221 -0.236609
vn -0.801599 -0.285436 0.525324
vn -0.801599 -0.285436 0.525324
vn -0.767937 -0.595221 -0.236609
vn -0.863920 -0.470590 -0.179406
vn -0.712616 -0.287167 0.640089
vn -0.828653 -0.555110 -0.072026
vn -0.601739 -0.724961 0.335176
vn -0.429564 -0.900312 -0.070099
vn -0.855129 -0.479441 -0.197208
vn -0.745135 -0.666507 -0.023296
vn -0.865904 -0.310316 0.392319
vn -0.601739 -0.724961 0.335176
vn -0.828653 -0.555110 -0.072026
vn -0.429564 -0.900312 -0.070099
vn -0.601739 -0.724961 0.335176
vn -0.708625 -0.698751 0.097967
vn -0.520623 -0.852627 -0.044484
vn -0.708625 -0.698751 0.097967
vn -0.601739 -0.724961 0.335176
vn -0.865904 -0.310316 0.392319
vn -0.953193 -0.289387 0.087629
vn -0.708625 -0.698751 0.097967
vn -0.865904 -0.310316 0.392319
vn -0.457436 -0.889019 0.019953
vn -0.900067 -0.435538 -0.013610
vn -0.865904 -0.310316 0.392319
vn -0.745135 -0.666507 -0.023296
vn -0.278854 -0.926938 0.251052
vn -0.814697 -0.578390 -0.041646
vn -0.900067 -0.435538 -0.013610
vn -0.457436 -0.889019 0.019953
vn -0.999960 -0.008398 -0.002988
vn -0.900067 -0.435538 -0.013610
vn -0.814697 -0.578390 -0.041646
vn -0.865904 -0.310316 0.392319
vn -0.900067 -0.435538 -0.013610
vn -0.999960 -0.008398 -0.002988
vn -0.953193 -0.289387 0.087629
vn -0.285505 -0.841307 0.459010
vn -0.745678 -0.659271 -0.096567
vn -0.814697 -0.578390 -0.041646
vn -0.278854 -0.926938 0.251052
vn -0.814697 -0.578390 -0.041646
vn -0.745678 -0.659271 -0.096567
vn -0.873711 -0.303586 -0.380084
vn -0.999960 -0.008398 -0.002988
vn -0.534357 -0.396948 0.746254
vn -0.685116 -0.666278 0.294430
vn -0.643344 -0.764964 -0.030653
vn -0.356283 -0.625796 0.693860
vn -0.356283 -0.625796 0.693860
vn -0.643344 -0.764964 -0.030653
vn -0.745678 -0.659271 -0.096567
vn -0.285505 -0.841307 0.459010
vn -0.863920 -0.470590 -0.179406
vn -0.711100 -0.579727 -0.397810
vn -0.643344 -0.764964 -0.030653
vn -0.685116 -0.666278 0.294430
vn -0.745678 -0.659271 -0.096567
vn -0.643344 -0.764964 -0.030653
vn -0.711100 -0.579727 -0.397810
vn -0.873711 -0.303586 -0.380084
vn -0.524252 -0.843525 -0.116728
vn -0.711100 -0.579727 -0.397810
vn -0.767937 -0.595221 -0.236609
vn -0.610882 -0.791706 0.004990
vn -0.873711 -0.303586 -0.380084
vn -0.711100 -0.579727 -0.397810
vn -0.953193 -0.289387 0.087629
vn -0.999960 -0.008398 -0.002988
vn -0.711100 -0.579727 -0.397810
vn -0.708625 -0.698751 0.097967
vn -0.953193 -0.289387 0.087629
vn -0.711100 -0.579727 -0.397810
vn -0.863920 -0.470590 -0.179406
vn -0.767937 -0.595221 -0.236609
vn -0.855129 -0.479441 -0.197208
vn -0.429564 -0.900312 -0.070099
vn -0.501605 -0.865082 0.005072
vn -0.932022 -0.357691 -0.058243
vn -0.932022 -0.357691 -0.058243
vn -0.501605 -0.865082 0.005072
vn -0.610882 -0.791706 0.004990
vn -0.918224 -0.243431 0.312419
vn -0.524252 -0.843525 -0.116728
vn -0.610882 -0.791706 0.004990
vn -0.501605 -0.865082 0.005072
vn -0.520623 -0.852627 -0.044484
vn -0.524252 -0.843525 -0.116728
vn -0.501605 -0.865082 0.005072
vn -0.429564 -0.900312 -0.070099
vn -0.711100 -0.579727 -0.397810
vn -0.524252 -0.843525 -0.116728
vn -0.520623 -0.852627 -0.044484
vn -0.708625 -0.698751 0.097967
s off
g apple_mod:Apple
usemtl apple_mod:initialShadingGroup
f 1/1/1 2/2/2 3/3/3 4/4/4
f 2/2/5 5/5/6 6/6/7 3/3/8
f 5/5/9 7/7/10 8/8/11 6/6/12
f 7/7/13 9/9/14 10/10/15 8/8/16
f 9/9/17 11/11/18 12/12/19 10/10/20
f 11/11/21 13/13/22 14/14/23 12/12/24
f 13/13/25 15/15/26 16/16/27 14/14/28
f 15/15/29 17/17/30 18/18/31 16/16/32
f 17/17/33 19/19/34 20/20/35 18/18/36
f 19/19/37 21/21/38 22/22/39 20/20/40
f 21/23/41 23/24/42 24/25/43 22/26/44
f 4/4/45 24/25/46 23/24/47 1/1/48
f 25/27/49 26/28/50 2/2/51 1/1/52
f 26/28/53 27/29/54 5/5/55 2/2/56
f 27/29/57 28/30/58 7/7/59 5/5/60
f 28/30/61 29/31/62 9/9/63 7/7/64
f 29/31/65 30/32/66 11/11/67 9/9/68
f 30/32/69 31/33/70 13/13/71 11/11/72
f 31/33/73 32/34/74 15/15/75 13/13/76
f 32/34/77 33/35/78 17/17/79 15/15/80
f 33/35/81 34/36/82 19/19/83 17/17/84
f 34/36/85 35/37/86 21/21/87 19/19/88
f 35/38/89 36/39/90 23/24/91 21/23/92
f 1/1/93 23/24/94 36/39/95 25/27/96
f 3/3/97 37/40/98 38/41/99 4/4/100
f 3/3/101 6/6/102 39/42/103 37/40/104
f 6/6/105 8/8/106 40/43/107 39/42/108
f 8/8/109 10/10/110 41/44/111 40/43/112
f 10/10/113 12/12/114 42/45/115 41/44/116
f 12/12/117 14/14/118 43/46/119 42/45/120
f 14/14/121 16/16/122 44/47/123 43/46/124
f 16/16/125 18/18/126 45/48/127 44/47/128
f 18/18/129 20/20/130 46/49/131 45/48/132
f 20/20/133 22/22/134 47/50/135 46/49/136
f 22/26/137 24/25/138 48/51/139 47/52/140
f 4/4/141 38/41/142 48/51/143 24/25/144
f 46/49/145 49/53/146 50/54/147 45/48/148
f 45/48/149 50/54/150 51/55/151 44/47/152
f 51/55/153 50/54/154 52/56/155
f 53/57/156 52/56/157 50/54/158 49/53/159
f 44/47/160 51/55/161 54/58/162 43/46/163
f 55/59/164 52/56/165 53/57/166
f 41/44/167 56/60/168 57/61/169 40/43/170
f 57/61/171 56/60/172 58/62/173 59/63/174
f 42/45/175 60/64/176 56/60/177 41/44/178
f 43/46/179 54/58/180 60/64/181 42/45/182
f 56/60/183 60/64/184 55/59/185 58/62/186
f 60/64/187 54/58/188 55/59/189
f 52/56/190 55/59/191 54/58/192 51/55/193
f 47/50/194 61/65/195 49/53/196 46/49/197
f 53/57/198 62/66/199 58/62/200 55/59/201
f 48/51/202 63/67/203 61/68/204 47/52/205
f 62/69/206 61/68/207 63/67/208
f 49/53/209 61/65/210 62/66/211 53/57/212
f 64/70/213 65/71/214 38/41/215 37/40/216
f 48/51/217 38/41/218 65/71/219 63/67/220
f 62/66/221 66/72/222 59/63/223 58/62/224
f 39/42/225 67/73/226 64/70/227 37/40/228
f 40/43/229 57/61/230 67/73/231 39/42/232
f 64/70/233 67/73/234 66/74/235 65/71/236
f 59/63/237 66/74/238 67/73/239 57/61/240
f 63/67/241 65/71/242 66/74/243 62/69/244
f 68/75/245 69/76/246 26/28/247 25/27/248
f 69/76/249 70/77/250 27/29/251 26/28/252
f 70/77/253 71/78/254 28/30/255 27/29/256
f 71/78/257 72/79/258 29/31/259 28/30/260
f 72/79/261 73/80/262 30/32/263 29/31/264
f 73/80/265 74/81/266 31/33/267 30/32/268
f 74/81/269 75/82/270 32/34/271 31/33/272
f 75/82/273 76/83/274 33/35/275 32/34/276
f 76/83/277 77/84/278 34/36/279 33/35/280
f 77/84/281 78/85/282 35/37/283 34/36/284
f 78/86/285 79/87/286 36/39/287 35/38/288
f 25/27/289 36/39/290 79/87/291 68/75/292
f 70/77/293 80/88/294 81/89/295 71/78/296
f 68/75/297 82/90/298 83/91/299 69/76/300
f 69/76/301 83/91/302 80/88/303 70/77/304
f 77/84/305 84/92/306 85/93/307 78/85/308
f 76/83/309 86/94/310 84/92/311 77/84/312
f 85/93/313 84/92/314 87/95/315 88/96/316
f 87/95/317 84/92/318 86/94/319
f 89/97/320 87/95/321 86/94/322
f 75/82/323 90/98/324 86/94/325 76/83/326
f 74/81/327 91/99/328 90/98/329 75/82/330
f 92/100/331 90/98/332 91/99/333
f 86/94/334 90/98/335 92/100/336 89/97/337
f 73/80/338 93/101/339 91/99/340 74/81/341
f 91/99/342 93/101/343 94/102/344 92/100/345
f 71/78/346 81/89/347 95/103/348 72/79/349
f 72/79/350 95/103/351 93/101/352 73/80/353
f 80/88/354 96/104/355 95/103/356 81/89/357
f 93/101/358 95/103/359 96/104/360 94/102/361
f 97/105/362 96/104/363 83/91/364 82/90/365
f 94/102/366 96/104/367 89/97/368 92/100/369
f 96/104/370 87/95/371 89/97/372
f 96/104/373 80/88/374 83/91/375
f 78/86/376 85/106/377 98/107/378 79/87/379
f 79/87/380 98/107/381 82/90/382 68/75/383
f 97/105/384 82/90/385 98/107/386
f 88/96/387 97/105/388 98/107/389 85/106/390
f 96/104/391 97/105/392 88/96/393 87/95/394
