# This file uses centimeters as units for non-parametric coordinates.

mtllib shelf_round.mtl
g default
v -12.168052 0.279526 2.033829
v -12.168052 0.265845 2.120207
v -12.168052 0.226141 2.198130
v -12.168052 0.164301 2.259970
v -12.168052 0.086378 2.299674
v -12.168052 0.000000 2.313354
v -12.168052 -0.086378 2.299674
v -12.168052 -0.164301 2.259970
v -12.168052 -0.226141 2.198130
v -12.168052 -0.265845 2.120207
v -12.168052 -0.279526 2.033829
v 12.168052 0.279526 2.033829
v 12.168052 0.265845 2.120207
v 12.168052 0.226141 2.198130
v 12.168052 0.164301 2.259970
v 12.168052 0.086378 2.299674
v 12.168052 0.000000 2.313354
v 12.168052 -0.086378 2.299674
v 12.168052 -0.164301 2.259970
v 12.168052 -0.226141 2.198130
v 12.168052 -0.265845 2.120207
v 12.168052 -0.279526 2.033829
v -12.168052 -0.000000 2.033829
v 12.168052 -0.000000 2.033829
v -12.222715 -0.279984 2.084270
v 12.222715 -0.279984 2.084270
v -12.222715 0.279984 2.084272
v 12.222715 0.279984 2.084272
v -12.222715 0.279984 -3.216348
v 12.222715 0.279984 -3.216348
v -12.222715 -0.279984 -3.216345
v 12.222715 -0.279984 -3.216345
vt 0.159983 0.682652
vt 1.047831 0.682652
vt 0.203306 0.673713
vt 1.004508 0.673713
vt 0.240766 0.647769
vt 0.967049 0.647769
vt 0.268615 0.607360
vt 0.939199 0.607360
vt 0.285428 0.556443
vt 0.922386 0.556443
vt 0.291015 0.500000
vt 0.916800 0.500000
vt 0.285428 0.443557
vt 0.922386 0.443557
vt 0.268615 0.392640
vt 0.939199 0.392640
vt 0.240766 0.352231
vt 0.967049 0.352231
vt 0.203306 0.326287
vt 1.004508 0.326287
vt 0.159983 0.317348
vt 1.047831 0.317348
vt 0.159983 0.500000
vt 1.047831 0.500000
vt -0.072889 -2.589516
vt 0.308722 -2.589516
vt 0.308722 -0.545506
vt -0.072889 -0.545506
vt 0.317218 -0.545506
vt 0.317218 -2.589515
vt 0.698828 -2.589515
vt 0.698828 -0.545506
vt 0.640310 1.522001
vt 0.640310 -0.522008
vt 1.021920 -0.522008
vt 1.021920 1.522001
vt 0.251955 -0.522005
vt 0.633566 -0.522005
vt 0.633566 1.522005
vt 0.251955 1.522005
vt -0.072889 1.545506
vt 0.308721 1.545506
vt 0.308721 3.589517
vt -0.072889 3.589517
vt 0.317217 1.545506
vt 0.698828 1.545506
vt 0.698828 3.589517
vt 0.317217 3.589517
vn -0.000000 0.987688 0.156434
vn -0.000000 0.951057 0.309017
vn -0.000000 0.951057 0.309017
vn -0.000000 0.987688 0.156434
vn -0.000000 0.809017 0.587785
vn -0.000000 0.809017 0.587785
vn -0.000000 0.587784 0.809018
vn -0.000000 0.587784 0.809018
vn -0.000000 0.309016 0.951057
vn -0.000000 0.309016 0.951057
vn -0.000000 -0.000000 1.000000
vn -0.000000 -0.000000 1.000000
vn -0.000000 -0.309016 0.951057
vn -0.000000 -0.309016 0.951057
vn -0.000000 -0.587784 0.809018
vn -0.000000 -0.587784 0.809018
vn -0.000000 -0.809016 0.587786
vn -0.000000 -0.809016 0.587786
vn -0.000000 -0.951056 0.309018
vn -0.000000 -0.951056 0.309018
vn -0.000000 -0.987688 0.156434
vn -0.000000 -0.987688 0.156434
vn -1.000000 0.000005 0.000000
vn -1.000000 0.000000 0.000000
vn -1.000000 -0.000002 0.000000
vn -1.000000 0.000005 0.000000
vn -1.000000 -0.000010 0.000000
vn -1.000000 -0.000000 0.000000
vn -1.000000 0.000000 0.000000
vn -1.000000 -0.000010 0.000000
vn -1.000000 0.000000 0.000000
vn -1.000000 -0.000005 0.000000
vn -1.000000 -0.000005 0.000000
vn -1.000000 0.000000 0.000000
vn 1.000000 0.000000 0.000000
vn 1.000000 0.000005 0.000000
vn 1.000000 0.000002 0.000000
vn 1.000000 0.000005 0.000000
vn 1.000000 0.000000 0.000000
vn 1.000000 0.000010 0.000000
vn 1.000000 0.000000 0.000000
vn 1.000000 0.000000 0.000000
vn 1.000000 0.000010 0.000000
vn 1.000000 -0.000005 0.000000
vn 1.000000 -0.000005 0.000000
vn 1.000000 0.000000 0.000000
vn 0.000000 -0.000005 1.000000
vn 0.000000 -0.000005 1.000000
vn 0.000000 -0.000005 1.000000
vn 0.000000 -0.000005 1.000000
vn 0.000000 1.000000 0.000000
vn 0.000000 1.000000 0.000000
vn 0.000000 1.000000 0.000000
vn 0.000000 1.000000 0.000000
vn 0.000000 -0.000005 -1.000000
vn 0.000000 -0.000005 -1.000000
vn 0.000000 -0.000005 -1.000000
vn 0.000000 -0.000005 -1.000000
vn 0.000000 -1.000000 0.000000
vn 0.000000 -1.000000 0.000000
vn 0.000000 -1.000000 0.000000
vn 0.000000 -1.000000 0.000000
vn 1.000000 -0.000002 0.000000
vn 1.000000 -0.000002 0.000000
vn 1.000000 -0.000002 0.000000
vn 1.000000 -0.000002 0.000000
vn -1.000000 -0.000002 0.000000
vn -1.000000 -0.000002 0.000000
vn -1.000000 -0.000002 0.000000
vn -1.000000 -0.000002 0.000000
s 1
g pCylinder2
usemtl lambert9SG
f 1/1/1 2/3/2 13/4/3 12/2/4
f 2/3/2 3/5/5 14/6/6 13/4/3
f 3/5/5 4/7/7 15/8/8 14/6/6
f 4/7/7 5/9/9 16/10/10 15/8/8
f 5/9/9 6/11/11 17/12/12 16/10/10
f 6/11/11 7/13/13 18/14/14 17/12/12
f 7/13/13 8/15/15 19/16/16 18/14/14
f 8/15/15 9/17/17 20/18/18 19/16/16
f 9/17/17 10/19/19 21/20/20 20/18/18
f 10/19/19 11/21/21 22/22/22 21/20/20
s 2
f 2/3/23 1/1/24 23/23/25
f 3/5/26 2/3/23 23/23/25
f 4/7/27 3/5/26 23/23/25
f 5/9/28 4/7/27 23/23/25
f 6/11/29 5/9/28 23/23/25
f 7/13/30 6/11/29 23/23/25
f 8/15/31 7/13/30 23/23/25
f 9/17/32 8/15/31 23/23/25
f 10/19/33 9/17/32 23/23/25
f 11/21/34 10/19/33 23/23/25
s 3
f 12/2/35 13/4/36 24/24/37
f 13/4/36 14/6/38 24/24/37
f 14/6/38 15/8/39 24/24/37
f 15/8/39 16/10/40 24/24/37
f 16/10/40 17/12/41 24/24/37
f 17/12/41 18/14/42 24/24/37
f 18/14/42 19/16/43 24/24/37
f 19/16/43 20/18/44 24/24/37
f 20/18/44 21/20/45 24/24/37
f 21/20/45 22/22/46 24/24/37
s off
f 25/25/47 26/26/48 28/27/49 27/28/50
f 27/29/51 28/30/52 30/31/53 29/32/54
f 29/33/55 30/34/56 32/35/57 31/36/58
f 31/37/59 32/38/60 26/39/61 25/40/62
f 26/41/63 32/42/64 30/43/65 28/44/66
f 31/45/67 25/46/68 27/47/69 29/48/70
