# This file uses centimeters as units for non-parametric coordinates.

mtllib shelf.mtl
g default
v -12.222715 0.127247 1.762150
v 12.222715 0.127247 1.762150
v -12.222715 0.687216 1.762152
v 12.222715 0.687216 1.762152
v -12.222715 0.687216 -3.538468
v 12.222715 0.687216 -3.538468
v -12.222715 0.127247 -3.538465
v 12.222715 0.127247 -3.538465
vt -0.072889 1.545506
vt 0.308721 1.545506
vt 0.308721 3.589517
vt -0.072889 3.589517
vt 0.317217 1.545506
vt 0.698828 1.545506
vt 0.698828 3.589517
vt 0.317217 3.589517
vt 0.317218 -0.545506
vt 0.317218 -2.589515
vt 0.698828 -2.589515
vt 0.698828 -0.545506
vt 0.251955 -0.522005
vt 0.633566 -0.522005
vt 0.633566 1.522005
vt 0.251955 1.522005
vt -0.072889 -2.589516
vt 0.308722 -2.589516
vt 0.308722 -0.545506
vt -0.072889 -0.545506
vt 0.640310 1.522001
vt 0.640310 -0.522008
vt 1.021920 -0.522008
vt 1.021920 1.522001
vn 0.000000 -0.000005 1.000000
vn 0.000000 -0.000005 1.000000
vn 0.000000 -0.000005 1.000000
vn 0.000000 -0.000005 1.000000
vn 0.000000 1.000000 0.000000
vn 0.000000 1.000000 0.000000
vn 0.000000 1.000000 0.000000
vn 0.000000 1.000000 0.000000
vn 0.000000 -0.000005 -1.000000
vn 0.000000 -0.000005 -1.000000
vn 0.000000 -0.000005 -1.000000
vn 0.000000 -0.000005 -1.000000
vn 0.000000 -1.000000 0.000000
vn 0.000000 -1.000000 0.000000
vn 0.000000 -1.000000 0.000000
vn 0.000000 -1.000000 0.000000
vn 1.000000 0.000000 0.000000
vn 1.000000 0.000000 0.000000
vn 1.000000 0.000000 0.000000
vn 1.000000 0.000000 0.000000
vn -1.000000 0.000000 0.000000
vn -1.000000 0.000000 0.000000
vn -1.000000 0.000000 0.000000
vn -1.000000 0.000000 0.000000
s off
g pCube1
usemtl lambert8SG
f 1/17/1 2/18/2 4/19/3 3/20/4
f 3/9/5 4/10/6 6/11/7 5/12/8
f 5/21/9 6/22/10 8/23/11 7/24/12
f 7/13/13 8/14/14 2/15/15 1/16/16
f 2/1/17 8/2/18 6/3/19 4/4/20
f 7/5/21 1/6/22 3/7/23 5/8/24
