# This file uses centimeters as units for non-parametric coordinates.

mtllib wall.mtl
g default
v -12.563107 -6.291392 -3.171579
v 12.563107 -6.291392 -3.171579
v -12.563107 15.191809 -3.171579
v 12.563107 15.191809 -3.171579
v -12.563107 15.191809 -4.995740
v 12.563107 15.191809 -4.995740
v -12.563107 -6.291392 -4.995740
v 12.563107 -6.291392 -4.995740
vt 0.001885 0.998007
vt 0.001885 0.668520
vt 0.318697 0.668520
vt 0.318697 0.998007
vt 0.324689 0.998008
vt 0.324689 0.668520
vt 0.641501 0.668520
vt 0.641501 0.998008
vt 0.324689 0.331481
vt 0.324689 0.001993
vt 0.654176 0.001993
vt 0.654176 0.331481
vt 0.291928 0.335257
vt 0.621416 0.335257
vt 0.621416 0.664745
vt 0.291928 0.664745
vt 0.001884 0.331480
vt 0.001884 0.001992
vt 0.318696 0.001992
vt 0.318696 0.331480
vt 0.627220 0.664745
vt 0.627220 0.335256
vt 0.944031 0.335256
vt 0.944031 0.664745
vn 0.000000 0.000000 1.000000
vn 0.000000 0.000000 1.000000
vn 0.000000 0.000000 1.000000
vn 0.000000 0.000000 1.000000
vn 0.000000 1.000000 0.000000
vn 0.000000 1.000000 0.000000
vn 0.000000 1.000000 0.000000
vn 0.000000 1.000000 0.000000
vn 0.000000 0.000000 -1.000000
vn 0.000000 0.000000 -1.000000
vn 0.000000 0.000000 -1.000000
vn 0.000000 0.000000 -1.000000
vn 0.000000 -1.000000 0.000000
vn 0.000000 -1.000000 0.000000
vn 0.000000 -1.000000 0.000000
vn 0.000000 -1.000000 0.000000
vn 1.000000 0.000000 0.000000
vn 1.000000 0.000000 0.000000
vn 1.000000 0.000000 0.000000
vn 1.000000 0.000000 0.000000
vn -1.000000 0.000000 0.000000
vn -1.000000 0.000000 0.000000
vn -1.000000 0.000000 0.000000
vn -1.000000 0.000000 0.000000
s off
g pasted__pCube1 group
usemtl lambert2SG
f 1/17/1 2/18/2 4/19/3 3/20/4
f 3/9/5 4/10/6 6/11/7 5/12/8
f 5/21/9 6/22/10 8/23/11 7/24/12
f 7/13/13 8/14/14 2/15/15 1/16/16
f 2/1/17 8/2/18 6/3/19 4/4/20
f 7/5/21 1/6/22 3/7/23 5/8/24
