# This file uses centimeters as units for non-parametric coordinates.

mtllib wall_and_shelf.mtl
g default
v -12.222715 0.127247 1.762150
v 12.222715 0.127247 1.762150
v -12.222715 0.687216 1.762152
v 12.222715 0.687216 1.762152
v -12.222715 0.687216 -3.538468
v 12.222715 0.687216 -3.538468
v -12.222715 0.127247 -3.538465
v 12.222715 0.127247 -3.538465
vt -0.072889 1.545506
vt 0.308721 1.545506
vt 0.308721 3.589517
vt -0.072889 3.589517
vt 0.317217 1.545506
vt 0.698828 1.545506
vt 0.698828 3.589517
vt 0.317217 3.589517
vt 0.317218 -0.545506
vt 0.317218 -2.589515
vt 0.698828 -2.589515
vt 0.698828 -0.545506
vt 0.251955 -0.522005
vt 0.633566 -0.522005
vt 0.633566 1.522005
vt 0.251955 1.522005
vt -0.072889 -2.589516
vt 0.308722 -2.589516
vt 0.308722 -0.545506
vt -0.072889 -0.545506
vt 0.640310 1.522001
vt 0.640310 -0.522008
vt 1.021920 -0.522008
vt 1.021920 1.522001
vn 0.000000 -0.000005 1.000000
vn 0.000000 -0.000005 1.000000
vn 0.000000 -0.000005 1.000000
vn 0.000000 -0.000005 1.000000
vn 0.000000 1.000000 0.000000
vn 0.000000 1.000000 0.000000
vn 0.000000 1.000000 0.000000
vn 0.000000 1.000000 0.000000
vn 0.000000 -0.000005 -1.000000
vn 0.000000 -0.000005 -1.000000
vn 0.000000 -0.000005 -1.000000
vn 0.000000 -0.000005 -1.000000
vn 0.000000 -1.000000 0.000000
vn 0.000000 -1.000000 0.000000
vn 0.000000 -1.000000 0.000000
vn 0.000000 -1.000000 0.000000
vn 1.000000 0.000000 0.000000
vn 1.000000 0.000000 0.000000
vn 1.000000 0.000000 0.000000
vn 1.000000 0.000000 0.000000
vn -1.000000 0.000000 0.000000
vn -1.000000 0.000000 0.000000
vn -1.000000 0.000000 0.000000
vn -1.000000 0.000000 0.000000
s off
g pCube1
usemtl lambert8SG
f 1/17/1 2/18/2 4/19/3 3/20/4
f 3/9/5 4/10/6 6/11/7 5/12/8
f 5/21/9 6/22/10 8/23/11 7/24/12
f 7/13/13 8/14/14 2/15/15 1/16/16
f 2/1/17 8/2/18 6/3/19 4/4/20
f 7/5/21 1/6/22 3/7/23 5/8/24
g default
v -12.563107 -6.291392 -3.171579
v 12.563107 -6.291392 -3.171579
v -12.563107 15.191809 -3.171579
v 12.563107 15.191809 -3.171579
v -12.563107 15.191809 -4.995740
v 12.563107 15.191809 -4.995740
v -12.563107 -6.291392 -4.995740
v 12.563107 -6.291392 -4.995740
vt 0.001885 0.998007
vt 0.001885 0.668520
vt 0.318697 0.668520
vt 0.318697 0.998007
vt 0.324689 0.998008
vt 0.324689 0.668520
vt 0.641501 0.668520
vt 0.641501 0.998008
vt 0.324689 0.331481
vt 0.324689 0.001993
vt 0.654176 0.001993
vt 0.654176 0.331481
vt 0.291928 0.335257
vt 0.621416 0.335257
vt 0.621416 0.664745
vt 0.291928 0.664745
vt 0.001884 0.331480
vt 0.001884 0.001992
vt 0.318696 0.001992
vt 0.318696 0.331480
vt 0.627220 0.664745
vt 0.627220 0.335256
vt 0.944031 0.335256
vt 0.944031 0.664745
vn 0.000000 0.000000 1.000000
vn 0.000000 0.000000 1.000000
vn 0.000000 0.000000 1.000000
vn 0.000000 0.000000 1.000000
vn 0.000000 1.000000 0.000000
vn 0.000000 1.000000 0.000000
vn 0.000000 1.000000 0.000000
vn 0.000000 1.000000 0.000000
vn 0.000000 0.000000 -1.000000
vn 0.000000 0.000000 -1.000000
vn 0.000000 0.000000 -1.000000
vn 0.000000 0.000000 -1.000000
vn 0.000000 -1.000000 0.000000
vn 0.000000 -1.000000 0.000000
vn 0.000000 -1.000000 0.000000
vn 0.000000 -1.000000 0.000000
vn 1.000000 0.000000 0.000000
vn 1.000000 0.000000 0.000000
vn 1.000000 0.000000 0.000000
vn 1.000000 0.000000 0.000000
vn -1.000000 0.000000 0.000000
vn -1.000000 0.000000 0.000000
vn -1.000000 0.000000 0.000000
vn -1.000000 0.000000 0.000000
s off
g pasted__pCube1 group
usemtl lambert2SG
f 9/41/25 10/42/26 12/43/27 11/44/28
f 11/33/29 12/34/30 14/35/31 13/36/32
f 13/45/33 14/46/34 16/47/35 15/48/36
f 15/37/37 16/38/38 10/39/39 9/40/40
f 10/25/41 16/26/42 14/27/43 12/28/44
f 15/29/45 9/30/46 11/31/47 13/32/48
